<svg width="20" height="20" viewBox="0 0 20 20" fill="none" xmlns="http://www.w3.org/2000/svg">
<g clip-path="url(#clip0_1228_20641)">
<path d="M15.2083 3.75065H15.8333C15.9438 3.75065 16.0497 3.79455 16.1279 3.87269C16.206 3.95083 16.2499 4.05681 16.2499 4.16732V4.79232C16.2499 4.95808 16.3158 5.11705 16.433 5.23426C16.5502 5.35147 16.7092 5.41732 16.8749 5.41732C17.0407 5.41732 17.1997 5.35147 17.3169 5.23426C17.4341 5.11705 17.4999 4.95808 17.4999 4.79232V4.16732C17.4999 4.05681 17.5438 3.95083 17.622 3.87269C17.7001 3.79455 17.8061 3.75065 17.9166 3.75065H18.5416C18.7073 3.75065 18.8663 3.6848 18.9835 3.56759C19.1007 3.45038 19.1666 3.29141 19.1666 3.12565C19.1666 2.95989 19.1007 2.80092 18.9835 2.68371C18.8663 2.5665 18.7073 2.50065 18.5416 2.50065H17.9166C17.8061 2.50065 17.7001 2.45675 17.622 2.37861C17.5438 2.30047 17.4999 2.19449 17.4999 2.08398V1.45898C17.4999 1.29322 17.4341 1.13425 17.3169 1.01704C17.1997 0.899832 17.0407 0.833984 16.8749 0.833984C16.7092 0.833984 16.5502 0.899832 16.433 1.01704C16.3158 1.13425 16.2499 1.29322 16.2499 1.45898V2.08398C16.2499 2.19449 16.206 2.30047 16.1279 2.37861C16.0497 2.45675 15.9438 2.50065 15.8333 2.50065H15.2083C15.0425 2.50065 14.8835 2.5665 14.7663 2.68371C14.6491 2.80092 14.5833 2.95989 14.5833 3.12565C14.5833 3.29141 14.6491 3.45038 14.7663 3.56759C14.8835 3.6848 15.0425 3.75065 15.2083 3.75065Z" fill="#007AFF"/>
<path d="M3.95825 13.75H3.54159C3.48633 13.75 3.43334 13.7281 3.39427 13.689C3.3552 13.6499 3.33325 13.5969 3.33325 13.5417V13.125C3.33325 12.9592 3.2674 12.8003 3.15019 12.6831C3.03298 12.5658 2.87401 12.5 2.70825 12.5C2.54249 12.5 2.38352 12.5658 2.26631 12.6831C2.1491 12.8003 2.08325 12.9592 2.08325 13.125V13.5417C2.08325 13.5969 2.0613 13.6499 2.02223 13.689C1.98316 13.7281 1.93017 13.75 1.87492 13.75H1.45825C1.29249 13.75 1.13352 13.8158 1.01631 13.9331C0.8991 14.0503 0.833252 14.2092 0.833252 14.375C0.833252 14.5408 0.8991 14.6997 1.01631 14.8169C1.13352 14.9342 1.29249 15 1.45825 15H1.87492C1.93017 15 1.98316 15.0219 2.02223 15.061C2.0613 15.1001 2.08325 15.1531 2.08325 15.2083V15.625C2.08325 15.7908 2.1491 15.9497 2.26631 16.0669C2.38352 16.1842 2.54249 16.25 2.70825 16.25C2.87401 16.25 3.03298 16.1842 3.15019 16.0669C3.2674 15.9497 3.33325 15.7908 3.33325 15.625V15.2083C3.33325 15.1531 3.3552 15.1001 3.39427 15.061C3.43334 15.0219 3.48633 15 3.54159 15H3.95825C4.12401 15 4.28298 14.9342 4.40019 14.8169C4.5174 14.6997 4.58325 14.5408 4.58325 14.375C4.58325 14.2092 4.5174 14.0503 4.40019 13.9331C4.28298 13.8158 4.12401 13.75 3.95825 13.75Z" fill="#007AFF"/>
<path d="M13.1749 8.45045C13.1903 8.24865 13.1402 8.04727 13.0322 7.87616C12.9241 7.70504 12.7638 7.5733 12.5749 7.50045L10.7499 6.80045C10.6732 6.77014 10.6074 6.71729 10.5613 6.64886C10.5152 6.58043 10.4909 6.49963 10.4916 6.41712L10.4416 4.37545C10.4486 4.18809 10.3985 4.00302 10.2979 3.84479C10.1973 3.68656 10.051 3.56263 9.8784 3.48943C9.70578 3.41623 9.515 3.39721 9.33133 3.43489C9.14766 3.47258 8.97978 3.56519 8.84994 3.70045L7.74994 4.80878C7.69364 4.86326 7.62311 4.90075 7.54647 4.91696C7.46982 4.93318 7.39015 4.92745 7.31661 4.90045L5.49994 4.27545C5.33058 4.21887 5.14877 4.21073 4.97502 4.25196C4.80127 4.29319 4.6425 4.38214 4.51661 4.50878C4.38782 4.63507 4.29693 4.79487 4.25423 4.97012C4.21152 5.14537 4.2187 5.32907 4.27495 5.50045L4.89995 7.31712C4.92803 7.39113 4.93352 7.47182 4.91572 7.54896C4.89792 7.6261 4.85762 7.69622 4.79995 7.75045L3.69995 8.85045C3.56584 8.98032 3.47418 9.14773 3.43699 9.33068C3.39981 9.51362 3.41885 9.70353 3.49161 9.87545C3.56339 10.0386 3.67959 10.1782 3.82695 10.2784C3.97431 10.3786 4.14688 10.4353 4.32495 10.4421L6.38328 10.4921C6.46437 10.4931 6.54335 10.5181 6.61013 10.5642C6.67692 10.6102 6.72849 10.675 6.75828 10.7505L7.49994 12.5755C7.56743 12.7699 7.69572 12.9374 7.86583 13.0533C8.03594 13.1691 8.23882 13.2271 8.44446 13.2187C8.6501 13.2103 8.84757 13.1359 9.00764 13.0066C9.16772 12.8772 9.2819 12.6997 9.33328 12.5005L9.99994 10.2421C10.0188 10.1745 10.0548 10.1129 10.1045 10.0633C10.1541 10.0137 10.2157 9.97768 10.2833 9.95878L12.4999 9.33378C12.691 9.27609 12.859 9.15972 12.9801 9.00116C13.1013 8.84261 13.1695 8.64992 13.1749 8.45045Z" fill="#007AFF"/>
<path d="M2.26662 3.15069C2.3851 3.26109 2.5418 3.32119 2.70372 3.31833C2.86564 3.31547 3.02013 3.24988 3.13464 3.13537C3.24915 3.02086 3.31474 2.86637 3.3176 2.70445C3.32046 2.54254 3.26035 2.38583 3.14995 2.26735L1.89995 1.01735C1.78147 0.906953 1.62477 0.84685 1.46285 0.849707C1.30093 0.852564 1.14645 0.918157 1.03194 1.03267C0.917424 1.14718 0.851831 1.30167 0.848974 1.46358C0.846117 1.6255 0.90622 1.78221 1.01662 1.90069L2.26662 3.15069Z" fill="#007AFF"/>
<path d="M7.29175 2.91667C7.45684 2.91451 7.61456 2.84797 7.7313 2.73122C7.84805 2.61448 7.91459 2.45676 7.91675 2.29167V0.625C7.91675 0.45924 7.8509 0.300269 7.73369 0.183058C7.61648 0.065848 7.45751 0 7.29175 0C7.12599 0 6.96702 0.065848 6.84981 0.183058C6.7326 0.300269 6.66675 0.45924 6.66675 0.625V2.29167C6.66891 2.45676 6.73545 2.61448 6.85219 2.73122C6.96894 2.84797 7.12666 2.91451 7.29175 2.91667Z" fill="#007AFF"/>
<path d="M2.91667 7.70898C2.91451 7.5439 2.84797 7.38618 2.73122 7.26943C2.61448 7.15268 2.45676 7.08614 2.29167 7.08398H0.625C0.45924 7.08398 0.300269 7.14983 0.183058 7.26704C0.065848 7.38425 0 7.54322 0 7.70898C0 7.87474 0.065848 8.03372 0.183058 8.15093C0.300269 8.26814 0.45924 8.33398 0.625 8.33398H2.29167C2.45676 8.33183 2.61448 8.26528 2.73122 8.14854C2.84797 8.03179 2.91451 7.87407 2.91667 7.70898Z" fill="#007AFF"/>
<path d="M19.4668 17.2083L12.0751 10.6416C11.999 10.5683 11.8974 10.5273 11.7918 10.5273C11.6861 10.5273 11.5845 10.5683 11.5084 10.6416L10.6751 11.475C10.6018 11.5511 10.5608 11.6526 10.5608 11.7583C10.5608 11.864 10.6018 11.9655 10.6751 12.0416L17.2501 19.4333C17.393 19.603 17.5697 19.741 17.7689 19.8387C17.968 19.9365 18.1853 19.9917 18.407 20.0009C18.6286 20.0102 18.8498 19.9732 19.0564 19.8924C19.263 19.8116 19.4505 19.6888 19.6071 19.5316C19.7637 19.3745 19.8859 19.1865 19.9659 18.9796C20.0459 18.7727 20.0821 18.5514 20.072 18.3298C20.0619 18.1081 20.0059 17.891 19.9074 17.6922C19.809 17.4934 19.6703 17.3173 19.5001 17.175L19.4668 17.2083Z" fill="#007AFF"/>
</g>
<defs>
<clipPath id="clip0_1228_20641">
<rect width="20" height="20" fill="white"/>
</clipPath>
</defs>
</svg>
